<?xml version="1.0" encoding="UTF-8"?>
<!DOCTYPE svg PUBLIC "-//W3C//DTD SVG 1.1//EN" "http://www.w3.org/Graphics/SVG/1.1/DTD/svg11.dtd">
<svg xmlns="http://www.w3.org/2000/svg" version="1.1" width="410px" height="494px" style="shape-rendering:geometricPrecision; text-rendering:geometricPrecision; image-rendering:optimizeQuality; fill-rule:evenodd; clip-rule:evenodd" xmlns:xlink="http://www.w3.org/1999/xlink">
<g><path style="opacity:1" fill="#a7cd3c" d="M 147.5,397.5 C 147.5,388.833 147.5,380.167 147.5,371.5C 176.199,371.941 204.866,371.441 233.5,370C 305.159,354.007 350.326,310.507 369,239.5C 381.235,168.51 359.402,110.677 303.5,66C 253.176,31.4807 199.176,24.4807 141.5,45C 76.4145,73.6291 40.5811,123.462 34,194.5C 33.5,235.499 33.3333,276.499 33.5,317.5C 25.1667,317.5 16.8333,317.5 8.5,317.5C 8.33334,274.165 8.50001,230.832 9,187.5C 15.9453,122.737 46.4453,72.5701 100.5,37C 166.103,-0.459967 232.436,-1.7933 299.5,33C 362.921,71.5341 395.921,128.201 398.5,203C 396.067,276.907 363.734,333.24 301.5,372C 279.961,384.18 256.961,392.18 232.5,396C 204.095,396.175 175.761,396.675 147.5,397.5 Z"/></g>
<g><path style="opacity:1" fill="#65bc49" d="M 121.5,371.5 C 121.5,379.833 121.5,388.167 121.5,396.5C 102.833,396.5 84.1667,396.5 65.5,396.5C 65.021,319.806 65.521,243.139 67,166.5C 85.1472,109.35 123.647,75.1838 182.5,64C 242.291,57.8193 289.124,79.3193 323,128.5C 348.054,172.155 350.721,217.155 331,263.5C 304.311,314.962 261.811,341.962 203.5,344.5C 194.451,344.195 185.451,343.362 176.5,342C 175.35,333.245 175.184,324.412 176,315.5C 231.2,325.891 273.867,307.558 304,260.5C 321.401,226.603 323.068,191.937 309,156.5C 283.417,106.784 242.584,84.2837 186.5,89C 138.858,97.9729 107.358,125.473 92,171.5C 91.5,238.166 91.3333,304.833 91.5,371.5C 101.5,371.5 111.5,371.5 121.5,371.5 Z"/></g>
<g><path style="opacity:1" fill="#0d4fa2" d="M 148.5,190.5 C 148.649,189.448 148.483,188.448 148,187.5C 146.964,190.753 146.297,194.086 146,197.5C 145.5,292.833 145.333,388.166 145.5,483.5C 138.5,483.5 131.5,483.5 124.5,483.5C 124.347,383.805 124.514,284.139 125,184.5C 124.722,185.416 124.222,186.082 123.5,186.5C 131.507,151.66 152.84,129.827 187.5,121C 229.628,114.814 260.795,130.314 281,167.5C 295.265,204.512 288.432,237.012 260.5,265C 235.845,285.33 208.512,290.33 178.5,280C 179.821,271.863 179.821,263.697 178.5,255.5C 179.167,255.167 179.833,254.833 180.5,254.5C 209.63,265.396 233.796,258.73 253,234.5C 269.674,203.029 264.174,176.196 236.5,154C 213.509,140.81 191.176,141.81 169.5,157C 158.94,166.034 151.94,177.201 148.5,190.5 Z"/></g>
<g><path style="opacity:0.941" fill="#0f4a9e" d="M 148.5,190.5 C 147.527,250.819 147.194,311.153 147.5,371.5C 147.5,380.167 147.5,388.833 147.5,397.5C 147.5,426.833 147.5,456.167 147.5,485.5C 139.167,485.5 130.833,485.5 122.5,485.5C 122.825,455.76 122.492,426.093 121.5,396.5C 121.5,388.167 121.5,379.833 121.5,371.5C 122.824,315.057 122.824,258.557 121.5,202C 122.07,196.797 122.736,191.63 123.5,186.5C 124.222,186.082 124.722,185.416 125,184.5C 124.514,284.139 124.347,383.805 124.5,483.5C 131.5,483.5 138.5,483.5 145.5,483.5C 145.333,388.166 145.5,292.833 146,197.5C 146.297,194.086 146.964,190.753 148,187.5C 148.483,188.448 148.649,189.448 148.5,190.5 Z"/></g>
</svg>
