<?xml version="1.0" encoding="UTF-8"?>
<!DOCTYPE svg PUBLIC "-//W3C//DTD SVG 1.1//EN" "http://www.w3.org/Graphics/SVG/1.1/DTD/svg11.dtd">
<svg xmlns="http://www.w3.org/2000/svg" version="1.1" width="512px" height="512px" style="shape-rendering:geometricPrecision; text-rendering:geometricPrecision; image-rendering:optimizeQuality; fill-rule:evenodd; clip-rule:evenodd" xmlns:xlink="http://www.w3.org/1999/xlink">
<g><path style="opacity:0.994" fill="#515f74" d="M 396.5,-0.5 C 397.167,-0.5 397.833,-0.5 398.5,-0.5C 409.916,28.2411 413.416,57.9077 409,88.5C 404.64,112.656 392.474,131.656 372.5,145.5C 350.513,159.174 326.513,167.341 300.5,170C 286.481,170.629 272.481,170.296 258.5,169C 247.428,167.69 236.761,165.19 226.5,161.5C 204.52,142.837 195.02,118.504 198,88.5C 201.167,61.3011 213.667,39.8011 235.5,24C 240.004,21.5588 244.671,20.0588 249.5,19.5C 268.176,20.8008 286.842,22.3008 305.5,24C 325.062,25.5873 344.395,24.254 363.5,20C 376.481,16.1852 387.481,9.35187 396.5,-0.5 Z"/></g>
<g><path style="opacity:1" fill="#3b485b" d="M 249.5,19.5 C 244.671,20.0588 240.004,21.5588 235.5,24C 213.667,39.8011 201.167,61.3011 198,88.5C 195.02,118.504 204.52,142.837 226.5,161.5C 213.081,158.042 200.247,153.042 188,146.5C 183.731,161.877 176.231,175.377 165.5,187C 156.523,194.825 146.19,198.325 134.5,197.5C 123.267,175.691 115.433,152.691 111,128.5C 109.538,118.54 109.205,108.54 110,98.5C 115.473,77.3652 129.14,66.0319 151,64.5C 154.825,65.4756 158.658,65.9756 162.5,66C 180.17,29.4961 209.17,13.9961 249.5,19.5 Z"/></g>
<g><path style="opacity:0.995" fill="#e99e8f" d="M 372.5,145.5 C 372.5,149.833 372.5,154.167 372.5,158.5C 338.986,178.468 302.652,186.301 263.5,182C 237.921,179.022 213.588,171.856 190.5,160.5C 189.073,197.849 189.239,235.183 191,272.5C 193.309,294.093 199.642,314.426 210,333.5C 217.856,348.36 229.689,358.527 245.5,364C 261.543,365.303 277.209,363.47 292.5,358.5C 292.5,363.833 292.5,369.167 292.5,374.5C 276.204,379.208 259.537,381.208 242.5,380.5C 242.827,390.348 242.494,400.014 241.5,409.5C 232.471,404.99 223.804,399.99 215.5,394.5C 215.832,382.482 215.499,370.482 214.5,358.5C 170.693,341.014 144.359,309.014 135.5,262.5C 110.807,260.319 99.307,246.986 101,222.5C 103.922,212.576 110.088,205.409 119.5,201C 124.359,199.191 129.359,198.024 134.5,197.5C 146.19,198.325 156.523,194.825 165.5,187C 176.231,175.377 183.731,161.877 188,146.5C 200.247,153.042 213.081,158.042 226.5,161.5C 236.761,165.19 247.428,167.69 258.5,169C 272.481,170.296 286.481,170.629 300.5,170C 326.513,167.341 350.513,159.174 372.5,145.5 Z"/></g>
<g><path style="opacity:0.997" fill="#f8c1ae" d="M 372.5,158.5 C 372.5,171.5 372.5,184.5 372.5,197.5C 372.682,219.178 372.349,240.845 371.5,262.5C 364.378,306.25 340.711,337.416 300.5,356C 297.846,356.941 295.179,357.774 292.5,358.5C 277.209,363.47 261.543,365.303 245.5,364C 229.689,358.527 217.856,348.36 210,333.5C 199.642,314.426 193.309,294.093 191,272.5C 189.239,235.183 189.073,197.849 190.5,160.5C 213.588,171.856 237.921,179.022 263.5,182C 302.652,186.301 338.986,178.468 372.5,158.5 Z"/></g>
<g><path style="opacity:0.964" fill="#ea9e8f" d="M 372.5,197.5 C 393.247,198.751 405.247,209.585 408.5,230C 404.867,250.515 392.534,261.349 371.5,262.5C 372.349,240.845 372.682,219.178 372.5,197.5 Z"/></g>
<g><path style="opacity:1" fill="#2b3645" d="M 208.5,213.5 C 212.803,212.796 216.303,214.13 219,217.5C 219.667,225.167 219.667,232.833 219,240.5C 214.333,247.167 209.667,247.167 205,240.5C 204.333,232.833 204.333,225.167 205,217.5C 206.376,216.295 207.542,214.962 208.5,213.5 Z"/></g>
<g><path style="opacity:1" fill="#2b3645" d="M 292.5,213.5 C 296.909,212.618 300.409,213.952 303,217.5C 303.667,225.167 303.667,232.833 303,240.5C 300.224,245.092 296.391,246.258 291.5,244C 290.299,243.097 289.465,241.931 289,240.5C 288.333,232.833 288.333,225.167 289,217.5C 290.376,216.295 291.542,214.962 292.5,213.5 Z"/></g>
<g><path style="opacity:1" fill="#e06f86" d="M 221.5,280.5 C 223.527,280.338 225.527,280.505 227.5,281C 244.849,296.108 262.182,296.108 279.5,281C 289.126,280.29 292.292,284.457 289,293.5C 276.14,305.451 260.973,309.951 243.5,307C 234.073,304.705 225.906,300.205 219,293.5C 216.458,288.438 217.292,284.105 221.5,280.5 Z"/></g>
<g><path style="opacity:0.987" fill="#f8c1af" d="M 292.5,374.5 C 292.5,381.167 292.5,387.833 292.5,394.5C 280.356,401.741 268.023,408.741 255.5,415.5C 254.702,415.957 254.369,416.624 254.5,417.5C 254.167,417.5 253.833,417.5 253.5,417.5C 253.631,416.624 253.298,415.957 252.5,415.5C 248.579,413.711 244.913,411.711 241.5,409.5C 242.494,400.014 242.827,390.348 242.5,380.5C 259.537,381.208 276.204,379.208 292.5,374.5 Z"/></g>
<g><path style="opacity:0.987" fill="#3b485b" d="M 191.5,394.5 C 197.056,416.823 203.39,438.823 210.5,460.5C 214.912,477.551 219.578,494.551 224.5,511.5C 204.167,511.5 183.833,511.5 163.5,511.5C 172.964,501.535 182.631,491.702 192.5,482C 181.966,479.242 171.466,476.408 161,473.5C 160.655,451.32 161.155,429.153 162.5,407C 162.167,404.167 161.833,401.333 161.5,398.5C 145.616,404.882 135.116,416.216 130,432.5C 128.545,458.79 128.045,485.124 128.5,511.5C 122.5,511.5 116.5,511.5 110.5,511.5C 110.333,487.164 110.5,462.831 111,438.5C 115.494,416.337 128.661,402.17 150.5,396C 164.135,394.716 177.801,394.216 191.5,394.5 Z"/></g>
<g><path style="opacity:1" fill="#e4e4e4" d="M 191.5,394.5 C 199.5,394.5 207.5,394.5 215.5,394.5C 223.804,399.99 232.471,404.99 241.5,409.5C 244.913,411.711 248.579,413.711 252.5,415.5C 253.298,415.957 253.631,416.624 253.5,417.5C 244.833,425.5 236.5,433.833 228.5,442.5C 222.167,448.167 216.167,454.167 210.5,460.5C 203.39,438.823 197.056,416.823 191.5,394.5 Z"/></g>
<g><path style="opacity:1" fill="#e4e4e4" d="M 292.5,394.5 C 300.5,394.5 308.5,394.5 316.5,394.5C 310.944,416.823 304.61,438.823 297.5,460.5C 291.833,454.167 285.833,448.167 279.5,442.5C 271.5,433.833 263.167,425.5 254.5,417.5C 254.369,416.624 254.702,415.957 255.5,415.5C 268.023,408.741 280.356,401.741 292.5,394.5 Z"/></g>
<g><path style="opacity:1" fill="#3b485b" d="M 316.5,394.5 C 327.014,394.172 337.347,394.506 347.5,395.5C 346.178,398.768 345.511,402.435 345.5,406.5C 346.771,428.838 347.105,451.171 346.5,473.5C 336.117,476.179 325.784,479.012 315.5,482C 325.369,491.702 335.036,501.535 344.5,511.5C 324.167,511.5 303.833,511.5 283.5,511.5C 283.5,511.167 283.5,510.833 283.5,510.5C 288.474,493.938 293.141,477.271 297.5,460.5C 304.61,438.823 310.944,416.823 316.5,394.5 Z"/></g>
<g><path style="opacity:1" fill="#505e74" d="M 347.5,395.5 C 374.664,397.494 391.164,411.828 397,438.5C 397.5,462.831 397.667,487.164 397.5,511.5C 379.833,511.5 362.167,511.5 344.5,511.5C 335.036,501.535 325.369,491.702 315.5,482C 325.784,479.012 336.117,476.179 346.5,473.5C 347.105,451.171 346.771,428.838 345.5,406.5C 345.511,402.435 346.178,398.768 347.5,395.5 Z"/></g>
<g><path style="opacity:1" fill="#505e74" d="M 163.5,511.5 C 151.833,511.5 140.167,511.5 128.5,511.5C 128.045,485.124 128.545,458.79 130,432.5C 135.116,416.216 145.616,404.882 161.5,398.5C 161.833,401.333 162.167,404.167 162.5,407C 161.155,429.153 160.655,451.32 161,473.5C 171.466,476.408 181.966,479.242 192.5,482C 182.631,491.702 172.964,501.535 163.5,511.5 Z"/></g>
<g><path style="opacity:1" fill="#f1f0f0" d="M 228.5,442.5 C 236.809,453.148 245.143,463.815 253.5,474.5C 244.118,486.87 234.785,499.204 225.5,511.5C 225.167,511.5 224.833,511.5 224.5,511.5C 219.578,494.551 214.912,477.551 210.5,460.5C 216.167,454.167 222.167,448.167 228.5,442.5 Z"/></g>
<g><path style="opacity:1" fill="#f1f0f0" d="M 279.5,442.5 C 285.833,448.167 291.833,454.167 297.5,460.5C 293.141,477.271 288.474,493.938 283.5,510.5C 273.128,499.122 263.462,487.122 254.5,474.5C 262.842,463.803 271.175,453.136 279.5,442.5 Z"/></g>
<g><path style="opacity:1" fill="#f74a67" d="M 253.5,417.5 C 253.833,417.5 254.167,417.5 254.5,417.5C 263.167,425.5 271.5,433.833 279.5,442.5C 271.175,453.136 262.842,463.803 254.5,474.5C 263.462,487.122 273.128,499.122 283.5,510.5C 283.5,510.833 283.5,511.167 283.5,511.5C 264.167,511.5 244.833,511.5 225.5,511.5C 234.785,499.204 244.118,486.87 253.5,474.5C 245.143,463.815 236.809,453.148 228.5,442.5C 236.5,433.833 244.833,425.5 253.5,417.5 Z"/></g>
</svg>
